<svg id="svg" xmlns="http://www.w3.org/2000/svg" xmlns:xlink="http://www.w3.org/1999/xlink" width="400" height="400" viewBox="0, 0, 400,400"><g id="svgg"><path id="path0" d="M7.500 7.653 C 7.133 7.801,7.037 19.140,7.037 62.609 L 7.037 117.379 12.130 118.984 C 14.931 119.867,74.679 138.415,144.904 160.202 C 215.129 181.989,272.586 199.898,272.587 200.000 C 272.588 200.102,214.881 218.094,144.350 239.983 C 73.819 261.872,14.069 280.421,11.573 281.204 L 7.035 282.627 7.128 337.517 L 7.222 392.407 47.593 392.490 L 87.963 392.572 98.294 378.139 C 103.976 370.201,108.809 363.561,109.035 363.384 C 109.260 363.206,174.069 342.510,253.056 317.391 L 396.667 271.722 396.667 200.142 C 396.667 158.096,396.529 128.477,396.333 128.356 C 396.150 128.243,331.384 107.592,252.409 82.465 L 108.819 36.781 98.274 22.094 L 87.730 7.407 47.847 7.437 C 25.911 7.453,7.755 7.550,7.500 7.653 M13.180 139.948 C 13.089 140.095,15.944 153.677,19.523 170.130 L 26.030 200.045 19.522 229.930 C 15.943 246.367,13.127 259.928,13.266 260.066 C 13.405 260.205,42.598 251.080,78.140 239.789 C 113.682 228.497,142.974 219.259,143.233 219.259 C 143.608 219.259,143.704 215.376,143.704 200.216 L 143.704 181.172 139.722 179.862 C 137.532 179.141,109.157 170.120,76.667 159.816 C 44.176 149.512,16.637 140.767,15.469 140.382 C 14.300 139.997,13.271 139.802,13.180 139.948 " stroke="none" fill="#555555" fill-rule="evenodd"></path></g></svg>